<svg id="svg" version="1.1" xmlns="http://www.w3.org/2000/svg" xmlns:xlink="http://www.w3.org/1999/xlink" width="400" height="400" viewBox="0, 0, 400,400"><g id="svgg"><path id="path0" d="M194.400 65.383 C 194.070 65.463,192.467 65.746,190.837 66.012 C 174.177 68.731,158.903 81.624,153.058 97.902 C 150.100 106.139,150.256 102.973,150.104 157.766 L 149.968 206.931 151.738 205.366 C 155.593 201.956,157.719 200.193,158.149 200.049 C 158.397 199.966,158.978 199.555,159.440 199.136 C 161.225 197.515,165.481 201.279,165.033 204.083 C 164.833 205.332,165.118 206.254,166.765 209.689 C 170.713 217.922,170.557 220.480,165.930 223.434 C 162.621 225.546,155.305 227.401,152.007 226.963 L 150.000 226.697 150.000 238.348 L 150.000 250.000 200.000 250.000 L 250.000 250.000 249.976 235.100 C 249.958 223.403,249.851 220.364,249.476 220.965 C 249.214 221.386,248.685 222.061,248.300 222.465 C 247.915 222.869,247.600 223.299,247.600 223.419 C 247.600 223.917,245.323 225.579,244.329 225.806 C 242.293 226.271,239.071 223.595,237.259 219.934 L 236.489 218.377 235.403 220.231 C 234.806 221.250,234.268 222.290,234.209 222.542 C 234.150 222.794,233.963 223.600,233.794 224.334 C 233.009 227.735,230.090 227.325,228.172 223.544 C 226.527 220.299,226.619 219.932,231.811 209.132 L 236.555 199.265 238.425 200.213 C 242.117 202.084,242.967 204.002,241.804 207.836 C 241.176 209.908,240.959 217.200,241.525 217.200 C 243.092 217.200,245.294 212.767,246.195 207.800 C 246.554 205.820,247.088 203.660,247.382 203.000 C 247.675 202.340,248.042 201.199,248.198 200.464 C 248.423 199.394,248.635 199.168,249.258 199.331 C 250.517 199.660,250.195 110.494,248.917 105.000 C 244.269 85.010,230.437 71.072,210.400 66.186 C 208.022 65.606,195.983 65.002,194.400 65.383 M210.000 95.000 C 208.583 96.430,207.104 97.600,206.713 97.600 C 205.723 97.600,195.623 108.063,194.767 109.975 C 193.730 112.291,191.564 113.186,189.512 112.144 C 186.586 110.659,187.135 105.719,190.305 105.020 C 191.005 104.866,193.639 102.548,197.600 98.602 L 203.800 92.426 208.188 92.413 L 212.577 92.400 210.000 95.000 M220.907 96.221 C 226.310 101.580,226.316 101.436,220.508 106.987 L 217.174 110.173 212.393 105.387 C 206.670 99.659,206.772 100.560,211.346 96.074 C 216.156 91.357,216.001 91.354,220.907 96.221 M209.904 107.704 L 214.796 112.608 201.051 126.349 L 187.306 140.089 181.753 141.227 C 178.699 141.853,175.907 142.373,175.549 142.383 C 174.974 142.398,175.049 141.663,176.174 136.177 L 177.450 129.954 191.023 116.377 C 198.488 108.910,204.689 102.800,204.804 102.800 C 204.918 102.800,207.213 105.007,209.904 107.704 M183.924 130.700 C 181.908 132.775,180.674 136.441,182.187 135.860 C 182.560 135.717,183.221 135.600,183.657 135.600 C 184.092 135.600,185.432 134.669,186.636 133.531 L 188.823 131.462 187.533 130.131 C 185.923 128.469,186.122 128.438,183.924 130.700 M217.940 200.699 C 219.532 202.381,219.659 202.667,219.437 204.058 C 219.232 205.339,219.505 206.227,221.165 209.689 C 225.704 219.156,224.770 222.281,216.530 225.196 C 197.782 231.830,190.573 218.553,205.865 205.555 C 207.001 204.590,208.869 202.990,210.017 202.000 C 211.166 201.010,212.403 200.085,212.767 199.945 C 213.130 199.804,213.672 199.395,213.970 199.036 C 214.760 198.085,215.929 198.575,217.940 200.699 M179.323 200.549 C 181.125 201.291,183.050 202.036,183.600 202.204 C 186.445 203.077,192.333 208.385,193.468 211.101 C 195.787 216.652,192.397 220.280,180.059 225.450 C 173.486 228.204,171.634 225.532,174.204 217.000 C 175.279 213.434,175.478 208.057,174.615 205.941 C 174.463 205.570,174.592 205.053,174.909 204.756 C 175.334 204.359,175.383 203.881,175.111 202.807 C 174.224 199.312,175.133 198.825,179.323 200.549 M179.857 208.700 C 180.199 211.198,180.171 215.431,179.799 217.497 C 179.522 219.033,179.802 218.976,184.600 216.530 C 190.374 213.587,190.557 211.370,185.251 208.626 C 184.225 208.096,179.976 206.401,179.671 206.400 C 179.600 206.400,179.684 207.435,179.857 208.700 M159.476 209.258 C 159.077 209.483,158.470 209.559,158.125 209.427 C 157.141 209.049,153.138 212.487,151.073 215.484 C 150.217 216.727,149.977 217.489,150.073 218.660 L 150.200 220.200 153.800 220.095 C 156.947 220.003,157.763 219.817,160.286 218.621 C 164.075 216.825,164.276 216.156,162.199 212.248 C 160.327 208.727,160.358 208.761,159.476 209.258 M213.876 209.258 C 213.477 209.483,212.870 209.559,212.525 209.427 C 211.546 209.051,207.514 212.507,205.527 215.424 C 202.556 219.787,203.053 220.615,208.400 220.218 C 211.090 220.018,212.403 219.682,214.686 218.609 C 218.475 216.828,218.677 216.158,216.599 212.248 C 214.727 208.727,214.758 208.761,213.876 209.258 M150.004 263.500 C 150.007 268.065,150.120 272.475,150.257 273.300 L 150.505 274.800 200.006 274.800 L 249.507 274.800 249.721 273.700 C 249.839 273.095,249.956 268.685,249.981 263.900 L 250.028 255.200 200.014 255.200 L 150.000 255.200 150.004 263.500 M151.200 280.355 C 151.200 281.496,153.481 288.269,154.878 291.275 L 156.518 294.804 199.959 294.702 L 243.400 294.600 244.901 291.600 C 246.328 288.747,247.982 284.122,248.586 281.300 L 248.864 280.000 200.032 280.000 C 171.844 280.000,151.200 280.150,151.200 280.355 M160.402 300.300 C 160.405 300.861,164.869 305.609,167.462 307.808 L 170.046 310.000 200.012 310.000 L 229.979 310.000 232.698 307.660 C 235.248 305.465,239.600 300.790,239.600 300.246 C 239.600 300.111,221.780 300.000,200.000 300.000 C 178.220 300.000,160.401 300.135,160.402 300.300 M181.400 316.242 C 192.173 320.767,205.775 320.961,217.400 316.755 C 219.270 316.078,220.800 315.451,220.800 315.362 C 220.800 315.273,211.395 315.208,199.900 315.217 L 179.000 315.234 181.400 316.242 " stroke="none" fill="#04acb4" fill-rule="evenodd"></path><path id="path1" d="M197.785 98.872 C 194.256 102.352,191.048 105.200,190.654 105.200 C 188.045 105.200,186.781 109.243,188.769 111.231 C 190.841 113.302,194.800 112.127,194.800 109.440 C 194.800 108.334,205.427 97.664,206.791 97.402 C 207.638 97.239,212.000 93.393,212.000 92.808 C 212.000 92.688,210.245 92.579,208.100 92.567 L 204.200 92.544 197.785 98.872 M215.600 92.704 C 215.270 92.807,213.335 94.532,211.299 96.539 L 207.598 100.186 212.492 105.092 L 217.386 109.998 221.093 106.307 C 226.011 101.410,226.011 101.375,221.100 96.546 C 217.333 92.843,216.662 92.374,215.600 92.704 M191.104 116.700 L 177.612 130.200 176.405 136.166 C 175.741 139.447,175.244 142.175,175.299 142.229 C 175.355 142.282,178.122 141.781,181.450 141.115 L 187.500 139.905 201.046 126.354 L 214.592 112.804 209.802 108.002 C 207.168 105.361,204.919 103.200,204.804 103.200 C 204.689 103.200,198.524 109.275,191.104 116.700 M187.608 130.209 L 188.973 131.617 186.987 133.603 C 185.346 135.243,184.674 135.633,183.131 135.844 L 181.263 136.100 181.652 134.350 C 181.928 133.109,182.583 132.048,183.906 130.700 C 186.133 128.430,185.913 128.460,187.608 130.209 M159.338 199.563 C 158.945 200.024,158.342 200.400,158.000 200.400 C 157.658 200.400,156.933 200.897,156.389 201.504 C 155.845 202.111,154.590 203.234,153.600 203.999 C 136.719 217.050,142.162 231.954,161.363 225.258 C 170.443 222.091,171.249 219.486,166.349 209.139 C 164.687 205.630,164.407 204.734,164.764 204.068 C 165.980 201.795,160.981 197.645,159.338 199.563 M213.738 199.563 C 213.345 200.024,212.742 200.400,212.400 200.400 C 212.058 200.400,211.333 200.897,210.789 201.504 C 210.245 202.111,208.990 203.234,208.000 203.999 C 191.111 217.056,196.540 231.962,215.745 225.264 C 224.845 222.090,225.652 219.491,220.749 209.139 C 219.087 205.630,218.807 204.734,219.164 204.068 C 220.380 201.795,215.381 197.645,213.738 199.563 M138.200 199.788 C 135.739 200.121,134.316 200.148,133.702 199.874 C 133.014 199.567,132.632 199.628,132.070 200.136 C 131.499 200.653,130.138 200.857,125.897 201.060 C 119.792 201.353,119.485 201.545,120.461 204.453 C 121.348 207.095,121.746 207.284,126.094 207.135 C 130.431 206.985,130.641 207.135,129.272 209.400 C 125.292 215.989,124.653 224.559,127.996 226.534 C 131.006 228.312,133.883 225.667,131.112 223.669 C 130.529 223.248,130.430 222.832,130.635 221.669 C 130.909 220.122,130.989 219.915,133.512 214.200 C 134.387 212.220,135.514 209.573,136.018 208.317 C 137.077 205.675,136.866 205.761,143.511 205.236 C 149.655 204.750,150.729 203.576,147.712 200.646 C 146.005 198.988,144.867 198.885,138.200 199.788 M175.270 200.527 C 175.070 201.276,175.091 202.270,175.319 202.943 C 175.609 203.796,175.574 204.169,175.180 204.412 C 174.749 204.679,174.740 205.315,175.129 207.869 C 175.699 211.614,175.727 213.371,175.233 214.305 C 172.744 219.009,173.067 226.800,175.751 226.800 C 176.567 226.800,183.182 224.038,186.553 222.290 C 195.748 217.523,196.364 211.426,188.264 205.349 C 185.188 203.041,185.314 203.107,179.705 200.879 L 175.609 199.253 175.270 200.527 M247.882 202.100 C 247.319 203.695,246.657 206.229,246.412 207.730 C 245.778 211.610,244.566 214.571,242.903 216.303 L 241.465 217.800 241.172 216.800 C 240.748 215.350,240.737 209.427,241.158 208.980 C 243.452 206.544,241.901 202.154,238.063 200.216 C 236.429 199.391,237.293 198.109,231.840 209.457 C 226.659 220.240,226.696 220.083,228.500 223.638 C 230.271 227.128,232.629 227.312,233.609 224.038 C 234.155 222.214,236.106 218.403,236.495 218.401 C 236.657 218.401,237.053 219.032,237.376 219.804 C 238.455 222.387,241.893 225.600,243.577 225.600 C 247.345 225.600,250.814 219.722,252.024 211.287 C 252.285 209.465,252.837 207.312,253.250 206.503 C 254.586 203.881,254.210 202.801,251.209 200.645 C 250.103 199.850,249.133 199.200,249.053 199.200 C 248.973 199.200,248.446 200.505,247.882 202.100 M271.725 200.211 C 266.778 200.974,259.897 202.772,258.821 203.584 L 257.866 204.305 258.569 206.852 C 259.574 210.490,259.510 210.974,257.479 215.200 C 254.810 220.754,255.582 224.991,259.517 226.381 C 261.334 227.023,270.192 226.511,273.381 225.579 C 278.923 223.961,278.100 218.456,272.479 219.546 C 270.263 219.976,264.707 220.601,263.700 220.533 C 263.425 220.515,262.844 220.478,262.409 220.450 C 261.700 220.405,261.667 220.285,262.089 219.300 C 263.382 216.287,263.644 216.133,267.554 216.086 C 271.133 216.044,272.768 215.550,274.900 213.865 C 275.866 213.102,275.821 212.978,273.937 211.186 L 272.275 209.605 268.937 209.861 L 265.600 210.118 265.600 209.086 C 265.600 208.442,265.864 207.982,266.300 207.863 C 267.230 207.609,275.120 205.723,276.435 205.440 C 279.466 204.788,280.444 202.375,278.315 200.801 C 276.747 199.641,275.910 199.566,271.725 200.211 M182.851 207.398 C 186.043 208.744,189.600 211.501,189.600 212.629 C 189.600 213.428,187.480 215.280,185.400 216.298 C 184.300 216.837,182.950 217.510,182.400 217.795 C 179.616 219.238,179.685 219.334,179.745 214.113 C 179.775 211.521,179.649 208.635,179.465 207.700 C 179.063 205.660,178.789 205.685,182.851 207.398 M162.072 211.725 C 164.494 216.157,164.310 216.974,160.490 218.722 C 156.941 220.347,152.029 221.020,149.700 220.201 C 147.192 219.319,154.387 209.897,158.140 209.149 C 160.252 208.727,160.534 208.913,162.072 211.725 M216.472 211.725 C 218.894 216.157,218.710 216.974,214.890 218.722 C 211.341 220.347,206.429 221.020,204.100 220.201 C 201.592 219.319,208.787 209.897,212.540 209.149 C 214.652 208.727,214.934 208.913,216.472 211.725 " stroke="none" fill="#eaeaea" fill-rule="evenodd"></path><path id="path2" d="M0.000 200.000 L 0.000 400.000 200.000 400.000 L 400.000 400.000 400.000 200.000 L 400.000 0.000 200.000 0.000 L 0.000 0.000 0.000 200.000 M210.939 66.195 C 228.157 70.086,241.901 82.607,247.607 99.600 C 249.865 106.326,249.748 103.654,249.983 153.596 L 250.200 199.793 251.659 200.737 C 254.124 202.332,254.722 203.923,253.656 206.052 C 253.176 207.014,252.505 209.510,252.167 211.600 C 251.829 213.690,251.203 216.583,250.776 218.028 C 250.070 220.420,250.000 221.979,250.000 235.328 L 250.000 250.000 200.000 250.000 L 150.000 250.000 150.000 238.450 L 150.000 226.900 148.766 226.653 C 142.014 225.303,141.428 217.137,147.537 209.542 L 149.979 206.507 150.106 156.954 C 150.225 110.970,150.285 107.184,150.950 104.400 C 156.172 82.538,172.950 67.749,195.600 65.043 C 198.809 64.659,206.797 65.259,210.939 66.195 M147.915 200.539 C 150.954 203.742,150.041 204.644,142.949 205.447 C 136.531 206.174,137.266 205.738,135.608 209.800 C 134.890 211.560,133.975 213.720,133.576 214.600 C 130.611 221.141,130.297 222.620,131.619 223.817 C 132.736 224.828,132.496 226.409,131.109 227.184 C 128.553 228.613,125.200 224.881,125.200 220.606 C 125.200 219.507,127.804 211.393,128.410 210.600 C 128.579 210.380,128.993 209.533,129.330 208.718 L 129.944 207.235 125.925 207.318 C 121.334 207.412,120.531 206.918,120.154 203.765 C 119.886 201.522,120.177 201.334,124.400 201.034 C 130.091 200.629,131.685 200.372,132.299 199.758 C 132.724 199.333,133.049 199.305,133.675 199.640 C 134.271 199.959,135.594 199.950,138.547 199.608 C 143.921 198.984,144.004 198.978,145.459 199.139 C 146.228 199.224,147.185 199.770,147.915 200.539 M278.790 200.774 C 281.447 202.977,279.611 204.948,273.600 206.345 C 266.325 208.035,265.811 208.201,265.675 208.909 C 265.557 209.521,265.946 209.602,269.071 209.617 C 278.479 209.661,277.086 216.003,267.595 216.336 L 263.725 216.471 262.862 218.246 C 262.388 219.223,262.000 220.131,262.000 220.266 C 262.000 220.649,269.544 220.000,272.166 219.390 C 274.693 218.803,275.867 219.302,277.533 221.671 C 278.388 222.888,275.684 225.345,272.813 225.960 C 257.678 229.202,252.404 225.154,257.571 214.259 C 259.201 210.822,259.532 209.800,259.161 209.353 C 257.955 207.900,257.627 204.514,258.603 203.597 C 261.504 200.871,276.396 198.789,278.790 200.774 M149.460 218.493 C 149.331 218.984,149.400 219.560,149.613 219.773 C 149.862 220.022,150.000 219.704,150.000 218.880 C 150.000 217.384,149.789 217.233,149.460 218.493 M249.907 264.900 L 249.800 275.000 200.000 275.000 L 150.200 275.000 150.093 264.900 L 149.986 254.800 200.000 254.800 L 250.014 254.800 249.907 264.900 M248.397 282.700 C 247.328 286.533,246.579 288.562,244.923 292.102 L 243.472 295.204 200.049 295.102 L 156.625 295.000 155.734 293.411 C 154.499 291.209,152.602 286.318,151.649 282.880 L 150.851 280.000 200.000 280.000 L 249.149 280.000 248.397 282.700 M239.202 301.100 C 237.791 302.913,233.777 307.002,231.887 308.550 L 230.118 310.000 199.902 310.000 L 169.687 310.000 167.550 308.100 C 165.334 306.130,162.205 302.877,160.769 301.052 L 159.942 300.000 200.000 300.000 L 240.058 300.000 239.202 301.100 M221.600 315.022 C 221.600 317.107,206.269 320.222,197.684 319.882 C 190.868 319.612,180.493 317.053,178.620 315.180 C 178.380 314.940,186.209 314.800,199.920 314.800 C 211.844 314.800,221.600 314.900,221.600 315.022 " stroke="none" fill="#3c3c44" fill-rule="evenodd"></path><path id="path3" d="M198.311 65.093 C 199.251 65.178,200.691 65.177,201.511 65.091 C 202.330 65.005,201.560 64.936,199.800 64.937 C 198.040 64.939,197.370 65.009,198.311 65.093 M166.378 77.900 L 165.000 79.400 166.500 78.022 C 167.325 77.263,168.000 76.588,168.000 76.522 C 168.000 76.216,167.662 76.504,166.378 77.900 M235.400 80.000 C 236.706 81.320,237.865 82.400,237.975 82.400 C 238.085 82.400,237.106 81.320,235.800 80.000 C 234.494 78.680,233.335 77.600,233.225 77.600 C 233.115 77.600,234.094 78.680,235.400 80.000 M249.693 110.800 C 249.693 111.570,249.775 111.885,249.876 111.500 C 249.976 111.115,249.976 110.485,249.876 110.100 C 249.775 109.715,249.693 110.030,249.693 110.800 M174.900 255.100 C 188.705 255.158,211.295 255.158,225.100 255.100 C 238.905 255.042,227.610 254.994,200.000 254.994 C 172.390 254.994,161.095 255.042,174.900 255.100 M150.161 274.000 L 150.200 275.000 200.000 275.000 L 249.800 275.000 249.866 274.000 C 249.923 273.119,249.908 273.107,249.738 273.900 L 249.544 274.800 199.999 274.800 L 150.453 274.800 150.288 273.900 C 150.144 273.117,150.128 273.130,150.161 274.000 M243.362 294.398 C 243.104 294.656,227.766 294.833,199.782 294.900 L 156.600 295.004 200.057 295.102 C 238.377 295.188,243.542 295.129,243.745 294.600 C 244.014 293.899,243.913 293.847,243.362 294.398 M178.474 315.007 C 178.588 315.121,188.275 315.214,200.000 315.214 C 211.725 315.214,221.412 315.121,221.526 315.007 C 221.640 314.893,211.953 314.800,200.000 314.800 C 188.047 314.800,178.360 314.893,178.474 315.007 M194.900 319.876 C 195.285 319.976,195.915 319.976,196.300 319.876 C 196.685 319.775,196.370 319.693,195.600 319.693 C 194.830 319.693,194.515 319.775,194.900 319.876 M203.100 319.882 C 203.595 319.978,204.405 319.978,204.900 319.882 C 205.395 319.787,204.990 319.709,204.000 319.709 C 203.010 319.709,202.605 319.787,203.100 319.882 " stroke="none" fill="#24747c" fill-rule="evenodd"></path><path id="path4" d="M210.992 96.500 L 207.400 100.200 211.100 96.608 C 214.536 93.272,214.982 92.800,214.692 92.800 C 214.632 92.800,212.967 94.465,210.992 96.500 M196.594 99.634 C 193.957 102.293,191.440 104.621,191.000 104.809 C 190.461 105.038,190.397 105.158,190.806 105.175 C 191.139 105.189,193.746 102.860,196.600 100.000 C 199.454 97.140,201.698 94.800,201.588 94.800 C 201.478 94.800,199.230 96.975,196.594 99.634 M198.845 104.555 C 196.341 107.068,194.789 108.926,194.920 109.255 C 195.091 109.686,195.143 109.676,195.168 109.207 C 195.186 108.881,197.042 106.766,199.293 104.507 C 201.544 102.248,203.296 100.400,203.186 100.400 C 203.076 100.400,201.122 102.270,198.845 104.555 M190.998 116.500 L 177.400 130.200 191.098 116.604 L 204.796 103.008 209.898 108.004 L 215.000 113.000 210.006 107.900 C 207.259 105.095,204.918 102.800,204.804 102.800 C 204.689 102.800,198.477 108.965,190.998 116.500 M213.400 106.400 C 215.371 108.380,217.073 110.000,217.183 110.000 C 217.293 110.000,215.771 108.380,213.800 106.400 C 211.829 104.420,210.127 102.800,210.017 102.800 C 209.907 102.800,211.429 104.420,213.400 106.400 M186.530 133.609 C 185.391 134.704,184.588 135.600,184.745 135.600 C 184.902 135.600,185.917 134.700,187.000 133.600 C 189.544 131.018,189.217 131.024,186.530 133.609 M125.700 201.076 C 126.085 201.176,126.715 201.176,127.100 201.076 C 127.485 200.975,127.170 200.893,126.400 200.893 C 125.630 200.893,125.315 200.975,125.700 201.076 M239.600 200.925 C 239.600 200.994,240.185 201.579,240.900 202.225 L 242.200 203.400 241.025 202.100 C 239.930 200.888,239.600 200.616,239.600 200.925 M123.500 207.489 C 124.215 207.578,125.385 207.578,126.100 207.489 C 126.815 207.401,126.230 207.328,124.800 207.328 C 123.370 207.328,122.785 207.401,123.500 207.489 M240.969 209.335 C 240.856 209.630,240.819 211.295,240.886 213.035 L 241.008 216.200 241.204 212.499 C 241.399 208.818,241.362 208.313,240.969 209.335 M175.324 211.800 C 175.326 213.120,175.401 213.612,175.490 212.893 C 175.579 212.174,175.577 211.094,175.486 210.493 C 175.395 209.892,175.322 210.480,175.324 211.800 M266.707 209.890 C 267.426 209.979,268.506 209.977,269.107 209.886 C 269.708 209.795,269.120 209.722,267.800 209.724 C 266.480 209.726,265.988 209.801,266.707 209.890 M268.705 216.283 C 269.202 216.379,269.922 216.375,270.305 216.275 C 270.687 216.175,270.280 216.096,269.400 216.101 C 268.520 216.105,268.207 216.187,268.705 216.283 M125.301 221.000 C 125.305 221.880,125.387 222.193,125.483 221.695 C 125.579 221.198,125.575 220.478,125.475 220.095 C 125.375 219.713,125.296 220.120,125.301 221.000 M240.000 223.800 C 240.746 224.570,241.447 225.200,241.557 225.200 C 241.667 225.200,241.146 224.570,240.400 223.800 C 239.654 223.030,238.953 222.400,238.843 222.400 C 238.733 222.400,239.254 223.030,240.000 223.800 M153.105 227.083 C 153.602 227.179,154.322 227.175,154.705 227.075 C 155.087 226.975,154.680 226.896,153.800 226.901 C 152.920 226.905,152.607 226.987,153.105 227.083 M207.505 227.083 C 208.002 227.179,208.722 227.175,209.105 227.075 C 209.487 226.975,209.080 226.896,208.200 226.901 C 207.320 226.905,207.007 226.987,207.505 227.083 M262.305 227.083 C 262.802 227.179,263.522 227.175,263.905 227.075 C 264.287 226.975,263.880 226.896,263.000 226.901 C 262.120 226.905,261.807 226.987,262.305 227.083 " stroke="none" fill="#7cccd4" fill-rule="evenodd"></path></g></svg>